PathFileType	4	(X/Y/Z)	14_1_50_p1_0-158_filt_butterworth.trc
DataRate	CameraRate	NumFrames	NumMarkers	Units	OrigDataRate	OrigDataStartFrame	OrigNumFrames
56.0	56.0	5	27	m	56.0	118	158
Frame#	Time	RHip			RKnee			RAnkle			RBigToe			RSmallToe			RHeel			LHip			LKnee			LAnkle			LBigToe			LSmallToe			LHeel			Neck			Head			Nose			RShoulder			RElbow			RWrist			RThumb			RIndex			RPinky			LShoulder			LElbow			LWrist			LThumb			LIndex			LPinky			
		X1	Y1	Z1	X2	Y2	Z2	X3	Y3	Z3	X4	Y4	Z4	X5	Y5	Z5	X6	Y6	Z6	X7	Y7	Z7	X8	Y8	Z8	X9	Y9	Z9	X10	Y10	Z10	X11	Y11	Z11	X12	Y12	Z12	X13	Y13	Z13	X14	Y14	Z14	X15	Y15	Z15	X16	Y16	Z16	X17	Y17	Z17	X18	Y18	Z18	X19	Y19	Z19	X20	Y20	Z20	X21	Y21	Z21	X22	Y22	Z22	X23	Y23	Z23	X24	Y24	Z24	X25	Y25	Z25	X26	Y26	Z26	X27	Y27	Z27	
118	2.107142857142857	0.30458147039573974	0.6260247631840169	0.31025309549027386	0.28852953544836807	0.7393813600864498	0.7021568813887539	0.28831915844570466	0.932558258599811	1.1285334338375612	0.26452135881388306	0.706213414173094	1.159941204810885	0.32209194944901237	0.7378950959421166	1.1669930355299807	0.2795062467831412	1.0176652040773562	1.190585502824608	0.0852966731903495	0.6594479119827887	0.29762132376516987	0.09124236845600886	0.7712243217982522	0.699229722348076	0.09663811383495835	0.8996086589017412	1.1304890537974217	0.1116774314253246	0.7121828770619886	1.1576046677855962	0.060932585902686076	0.7274439815835522	1.1573363617759833	0.10902640718895423	0.9548011157633758	1.172613817136862	0.19817653599230772	0.49513005042807934	-0.3162875749451704	0.19847595038821303	0.38781844085746137	-0.5725412375667676	0.1740869644844346	0.3419873998510744	-0.4133651346807051	0.3544769171971855	0.48986756146370997	-0.21445271977730745	0.435265397539963	0.3784010356111482	0.02297260736107101	0.2687660995061846	0.2575415896344097	0.18958296071179567	0.1745253177389913	0.27339827143346207	0.26818311503601105	0.1826807685396229	0.2652515790149134	0.3009238163136063	0.24632250286728408	0.3058465971526885	0.31834358242278915	0.02504595412776578	0.4989715527508568	-0.23005466883600784	-0.03490784794238022	0.6066880658719802	0.022749747908305293	0.016832190705576764	0.34064001268622585	0.1482128434592357	0.07867086244738984	0.23393874390735514	0.1725693273943815	0.030715256683148173	0.15776069175858634	0.19785148844595224	0.01620292797633202	0.209878228797664	0.23152513333494953
119	2.125	0.30454821380317365	0.62174956321392	0.3098063785335006	0.2884930626842338	0.7396278891174957	0.7026876872104334	0.28820779968883353	0.9330480730644974	1.1289576211273682	0.2657599305062426	0.7064294261896384	1.1599967833403224	0.3235716454422123	0.738300923736181	1.1671057862758252	0.27923950385733365	1.0182407974546266	1.192095393354557	0.08721878642885642	0.6660021916394737	0.2993615114776011	0.09124174064134263	0.7711989782424591	0.69921523024129	0.096331782021328	0.8988765234002856	1.129087477072131	0.11181182793405782	0.7120556039913535	1.157613470754553	0.06134639903521519	0.7272495586850063	1.1562469595559366	0.10868649859025781	0.9548295749235017	1.1735277335831842	0.19809692438132018	0.49519522019369866	-0.31626935840714365	0.19893687564212842	0.3879455838460766	-0.5726241529197891	0.17507351088808296	0.3422891825690687	-0.41338505570231177	0.35478797587676564	0.4902108695263947	-0.21331465139586211	0.422558389522297	0.38861134538861947	0.029083645512111816	0.2661902794805984	0.2597358050857284	0.19594104547239746	0.1715226521267679	0.2804212683867609	0.2767948623337346	0.17802000999012674	0.27759927037250676	0.3077302004643119	0.23872267509619052	0.32918416909405235	0.32223112891325767	0.026857330672126582	0.49429480995198566	-0.22965978572448215	-0.033979825384924785	0.6048232907087479	0.02201017296072595	0.018848642250259843	0.3376418055013976	0.1480524248236707	0.08011951073181418	0.23273953128443337	0.1733251485648725	0.0345200322368347	0.15861337167829026	0.19715197514311594	0.02153993682844885	0.1961765321736054	0.2313460961669428
120	2.142857142857143	0.3044003154999845	0.6158429667469557	0.30863457128962557	0.28847797689690696	0.7398003689259889	0.7035278212657815	0.2879172089517795	0.933737081406365	1.1302318711367418	0.2674523838419614	0.7066482712806752	1.1601094972025663	0.32546910234275084	0.7388290704878474	1.1672985572689214	0.27885861157605746	1.0190128672042589	1.1941383602441382	0.08828670443182876	0.6708492328571108	0.3015816390536401	0.09119901694278143	0.7709798671827188	0.6992278052860315	0.0959145357237521	0.8978771495123478	1.1272538290306726	0.11189781468566608	0.711993296411317	1.1576394459769943	0.061853944602171876	0.7273589971740967	1.155644310455338	0.10838787314193156	0.9546093962755997	1.1731911757944302	0.19828750276954332	0.49365330186832646	-0.31614199655958025	0.19901878035400922	0.3879678887041683	-0.5726631946324676	0.17542426970170014	0.3427256023831896	-0.4133964421296129	0.35467844504247875	0.48952432423301434	-0.2123068856850196	0.41359744459569947	0.39970915861762807	0.03710612986726597	0.26364711102138605	0.2639680187766145	0.20262154189413054	0.1673196621825993	0.29116049610180306	0.2851237104468123	0.1739055598879482	0.29008021774901827	0.31391179104346956	0.2307362198209125	0.3431168495114161	0.32402786695487307	0.028586521880473375	0.4910164143366115	-0.2293523284759295	-0.03467090865046125	0.6018004337426317	0.02226200530239722	0.0215873207630237	0.33371178244539573	0.14775869942386613	0.08302034458274775	0.23012884719140508	0.1744389841802144	0.04244313989574064	0.15894761718739434	0.19808890528758377	0.025894111733632187	0.19017716765617473	0.23205655179551637
121	2.1607142857142856	0.3045979580992671	0.611222964067191	0.3074036533826035	0.28848559934356477	0.7398479352126055	0.7033645295099605	0.28755654023399096	0.9342574484069741	1.131947724973582	0.26872198757123156	0.7068557944788879	1.1602422938919132	0.3267839570900003	0.7392995349066634	1.1675002195052717	0.27857027423734115	1.0195622339945263	1.1956656380930024	0.08765217049428872	0.6712140206162612	0.3038138467109123	0.09107634068741599	0.7705536275662317	0.6992481321135701	0.0955986383788374	0.8971192908693182	1.1259041565952586	0.11183647613733594	0.711901543871263	1.1572334885225106	0.062066685196799615	0.7276181761924377	1.155481868484246	0.10841472407306003	0.9546167244069398	1.1716401476036955	0.19912020971852035	0.4898675205015983	-0.31573438650448027	0.19902344137528694	0.3879756240205583	-0.572656847861646	0.175726908138969	0.3429515161751337	-0.41345597895159636	0.3547907975964865	0.4880662939115984	-0.21121176299857236	0.40863770408622896	0.40974566044948924	0.04570055388095733	0.2603626116115973	0.27400873586800656	0.2105424167703502	0.16206260790379934	0.3074192472662501	0.29334357086869095	0.16786083773868704	0.3093405773956515	0.3195047821417201	0.22198811351589628	0.3523396325047031	0.3256432917551582	0.0293977133206181	0.49006999341510366	-0.22929020679074336	-0.03673617157182378	0.5970674327388991	0.022803838524211417	0.024038234905518256	0.3302351316497115	0.1474104535085701	0.08684074110721181	0.22755483777309643	0.17641888707683692	0.054047009255024564	0.15837461312434536	0.20122604095534066	0.030152465143420272	0.19210322746221775	0.23348769564487226
122	2.1785714285714284	0.30504923389307304	0.6096248563855227	0.3066741577002848	0.28850013015968384	0.7398233084906977	0.7024835477993758	0.2873097369824767	0.9344485821709161	1.1332009577828646	0.26921007754470655	0.7070426734783125	1.1603711753326564	0.3271456020448876	0.7395550810396502	1.1676272941713488	0.27846661652552057	1.0197191823078895	1.1961941992195375	0.085058802556365	0.6671735751627365	0.30595683298651793	0.09084680675815815	0.7701956347018808	0.6992239058272122	0.09548660699596884	0.8968235026225595	1.1254027546380438	0.11161618882745629	0.7115984714832773	1.1559285094566147	0.06205481190577458	0.7276687695468489	1.1555007035029543	0.10873941543911383	0.955471421478626	1.1700830814554208	0.20032338978388486	0.4849004009423394	-0.3151690715152942	0.19904759248214524	0.38799654300114395	-0.5726172197299624	0.1765405436943169	0.3419359350496547	-0.41360185535165445	0.3556107000440262	0.4858435583709545	-0.21037630878053454	0.40606720698293064	0.41723546405234074	0.05328529962626946	0.2557156395239004	0.29129261395431616	0.21877754405149952	0.15611972997301313	0.3265143568920449	0.30037716266796144	0.16015229870782766	0.3347365680190149	0.3237819671019089	0.21199073619851788	0.36560580632563555	0.3282549676128309	0.029330761342328437	0.4903585934148036	-0.2296777264890466	-0.038573547839190404	0.5908633917472746	0.022992687389042005	0.026194498309343683	0.3270388857199926	0.1472405292759231	0.09073878700388258	0.225908307740264	0.18057305416085623	0.0674891619966182	0.15840085579117033	0.20572544781540358	0.03663247339145798	0.19792797969219666	0.235018177849784
